<svg xmlns="http://www.w3.org/2000/svg" width="280" height="280" viewBox="0 0 280 280">
  <g id="Group_10" data-name="Group 10" transform="translate(-3866 519)">
    <rect id="icone" width="280" height="280" transform="translate(3866 -519)"/>
    <path id="retro" d="M45.5,95A17.5,17.5,0,1,0,63,112.5,17.5,17.5,0,0,0,45.5,95Zm0,0c10.1-34.1,42.6-59,80-59m0,0A46.5,46.5,0,1,0,172,82.5,46.5,46.5,0,0,0,125.5,36Zm0,0h.5c10,0,10-16,0-16H107L119,9M79,50V38H60V67m-8,45.5a6.5,6.5,0,1,1-6.5-6.5,6.5,6.5,0,0,1,6.5,6.5Zm80-30a6.5,6.5,0,1,1-6.5-6.5,6.5,6.5,0,0,1,6.5,6.5Z" transform="translate(3906 -450.5)" fill="none" stroke="#fec74b" stroke-linecap="round" stroke-linejoin="round" stroke-miterlimit="10" stroke-width="4"/>
  </g>
</svg>
